<?xml version="1.0" encoding="UTF-8" standalone="no"?>
<!-- Created with Inkscape (http://www.inkscape.org/) -->

<svg
   xmlns:dc="http://purl.org/dc/elements/1.1/"
   xmlns:cc="http://creativecommons.org/ns#"
   xmlns:rdf="http://www.w3.org/1999/02/22-rdf-syntax-ns#"
   xmlns:svg="http://www.w3.org/2000/svg"
   xmlns="http://www.w3.org/2000/svg"
   xmlns:sodipodi="http://sodipodi.sourceforge.net/DTD/sodipodi-0.dtd"
   xmlns:inkscape="http://www.inkscape.org/namespaces/inkscape"
   version="1.1"
   id="svg7234"
   xml:space="preserve"
   width="800"
   height="800"
   viewBox="0 0 800 800"
   sodipodi:docname="bee-pd-freesvg.org.svg"
   inkscape:version="0.92.4 (5da689c313, 2019-01-14)"><metadata
     id="metadata7240"><rdf:RDF><cc:Work
         rdf:about=""><dc:format>image/svg+xml</dc:format><dc:type
           rdf:resource="http://purl.org/dc/dcmitype/StillImage" /><dc:title /></cc:Work></rdf:RDF></metadata><defs
     id="defs7238"><clipPath
       clipPathUnits="userSpaceOnUse"
       id="clipPath7250"><path
         d="M 0,600 H 600 V 0 H 0 Z"
         id="path7248"
         inkscape:connector-curvature="0" /></clipPath></defs><sodipodi:namedview
     pagecolor="#ffffff"
     bordercolor="#666666"
     borderopacity="1"
     objecttolerance="10"
     gridtolerance="10"
     guidetolerance="10"
     inkscape:pageopacity="0"
     inkscape:pageshadow="2"
     inkscape:window-width="1920"
     inkscape:window-height="1018"
     id="namedview7236"
     showgrid="false"
     inkscape:zoom="1"
     inkscape:cx="316.55085"
     inkscape:cy="393.22034"
     inkscape:window-x="-8"
     inkscape:window-y="-8"
     inkscape:window-maximized="1"
     inkscape:current-layer="g7242" /><g
     id="g7242"
     inkscape:groupmode="layer"
     inkscape:label="bee-publicdomainvectors.org [Converted]"
     transform="matrix(1.3333333,0,0,-1.3333333,0,800)"><g
       id="g7244"><g
         id="g7246"
         clip-path="url(#clipPath7250)"><path
           d="m 533.231,386.429 c -4.722,-20.53 -17.067,-39.697 -34.058,-36.217 -10.89,2.229 -23.59,7.706 -37.033,13.506 -2.285,0.985 -4.606,1.985 -6.957,2.988 -0.778,0.354 -1.556,0.686 -2.331,0.987 -25.653,10.833 -55.042,21.373 -85.358,15.184 3.453,1.799 7.103,3.769 11.03,5.658 4.577,2.203 9.363,4.637 14.435,6.864 2.528,1.143 5.095,2.306 7.695,3.48 2.627,1.106 5.288,2.225 7.967,3.351 1.341,0.566 2.691,1.131 4.039,1.699 1.363,0.53 2.732,1.06 4.103,1.593 2.744,1.062 5.499,2.128 8.254,3.197 5.571,1.917 11.101,4.048 16.655,5.715 2.769,0.858 5.504,1.791 8.236,2.572 2.739,0.763 5.443,1.518 8.107,2.262 2.652,0.795 5.309,1.318 7.89,1.961 2.587,0.594 5.11,1.274 7.597,1.692 2.484,0.471 4.901,0.933 7.24,1.376 2.343,0.415 4.624,0.657 6.808,0.976 4.369,0.716 8.405,0.814 11.984,1.123 3.577,0.169 6.703,0.021 9.287,0.049 2.566,-0.183 4.581,-0.445 5.962,-0.57 1.378,-0.142 2.114,-0.216 2.114,-0.216 0,0 -0.727,0.13 -2.091,0.373 -1.368,0.225 -3.369,0.636 -5.941,1.011 -2.58,0.163 -5.724,0.545 -9.341,0.642 -3.608,-0.042 -7.713,0.157 -12.153,-0.238 -2.22,-0.157 -4.55,-0.234 -6.94,-0.477 -2.389,-0.274 -4.862,-0.557 -7.399,-0.848 -2.553,-0.239 -5.132,-0.733 -7.789,-1.14 -2.644,-0.457 -5.382,-0.792 -8.105,-1.394 -2.741,-0.552 -5.528,-1.112 -8.347,-1.682 -2.818,-0.582 -5.636,-1.317 -8.499,-1.981 -5.738,-1.275 -11.454,-3.009 -17.235,-4.538 -2.862,-0.873 -5.722,-1.746 -8.568,-2.616 -1.425,-0.437 -2.848,-0.873 -4.267,-1.307 -1.406,-0.474 -2.807,-0.946 -4.202,-1.416 -2.794,-0.944 -5.566,-1.878 -8.306,-2.801 -2.716,-0.999 -5.4,-1.984 -8.037,-2.955 -5.303,-1.882 -10.325,-3.989 -15.132,-5.889 -3.478,-1.373 -6.764,-2.823 -9.895,-4.188 11.991,13.236 21.715,30.365 31.263,47.19 21.113,37.219 39.36,69.361 77.034,57.634 59.007,-18.36 68.38,-77.403 60.284,-112.61 M 484.078,277.055 c -32.93,-18.617 -59.147,11.847 -86.912,44.093 -12.956,15.05 -25.353,29.422 -38.457,38.463 3.45,-0.805 7.129,-1.75 10.992,-2.876 4.31,-1.222 8.823,-2.679 13.477,-4.26 4.635,-1.637 9.42,-3.371 14.21,-5.347 4.813,-1.919 9.621,-4.082 14.411,-6.305 4.745,-2.305 9.487,-4.656 14.016,-7.234 4.572,-2.509 8.921,-5.247 13.085,-7.981 4.091,-2.836 8.029,-5.643 11.502,-8.644 3.552,-2.91 6.62,-6.006 9.373,-8.955 1.278,-1.555 2.579,-3.001 3.669,-4.491 0.535,-0.755 1.055,-1.49 1.561,-2.208 0.253,-0.358 0.502,-0.711 0.75,-1.061 0.213,-0.369 0.426,-0.731 0.634,-1.089 1.738,-2.823 2.932,-5.497 3.754,-7.758 0.366,-1.152 0.691,-2.183 0.977,-3.083 0.208,-0.914 0.322,-1.712 0.445,-2.353 0.233,-1.289 0.358,-1.978 0.358,-1.978 0,0 -0.073,0.696 -0.208,1.998 -0.079,0.652 -0.134,1.47 -0.278,2.411 -0.22,0.928 -0.474,1.999 -0.756,3.193 -0.66,2.359 -1.679,5.191 -3.242,8.223 -0.187,0.386 -0.377,0.778 -0.568,1.174 -0.226,0.377 -0.455,0.758 -0.686,1.145 -0.464,0.778 -0.943,1.577 -1.434,2.395 -1.007,1.622 -2.221,3.206 -3.422,4.921 -2.59,3.245 -5.516,6.695 -8.927,9.97 -3.339,3.374 -7.143,6.572 -11.123,9.824 -4.044,3.144 -8.292,6.316 -12.768,9.26 -4.44,3.019 -9.095,5.817 -13.778,8.577 -15.849,9.128 -32.502,16.569 -46.691,21.622 28.296,6.563 56.337,-3.929 82.13,-14.921 19.005,-8.779 39.103,-38.322 40.529,-60.191 0.535,-8.187 -1.696,-13.748 -6.623,-16.534 M 298.023,131.894 c -4.699,13.919 -11.788,25.753 -19.138,38.023 -0.295,0.495 -0.589,0.986 -0.886,1.48 13.056,2.038 26.681,1.928 41.22,-0.313 -2.581,-4.757 -5.192,-9.337 -7.748,-13.813 -4.884,-8.554 -9.627,-16.87 -13.448,-25.377 m -94.992,189.254 c -21.905,-25.442 -42.844,-49.766 -66.878,-49.764 -6.429,0 -13.086,1.743 -20.036,5.671 -4.897,2.765 -7.112,8.294 -6.579,16.424 1.428,21.946 21.636,51.599 40.739,60.409 25.734,10.96 53.69,21.376 81.908,14.823 -14.199,-5.054 -30.863,-12.5 -46.723,-21.632 -4.682,-2.76 -9.338,-5.558 -13.777,-8.577 -4.474,-2.944 -8.723,-6.116 -12.768,-9.26 -3.98,-3.252 -7.783,-6.45 -11.122,-9.824 -3.414,-3.275 -6.337,-6.725 -8.926,-9.97 -1.202,-1.715 -2.418,-3.299 -3.424,-4.921 -0.493,-0.818 -0.97,-1.617 -1.433,-2.395 -0.23,-0.387 -0.46,-0.768 -0.685,-1.145 -0.193,-0.396 -0.384,-0.788 -0.57,-1.174 -1.563,-3.032 -2.581,-5.864 -3.239,-8.223 -0.285,-1.194 -0.539,-2.265 -0.758,-3.193 -0.145,-0.941 -0.2,-1.759 -0.278,-2.411 -0.135,-1.302 -0.209,-1.998 -0.209,-1.998 0,0 0.123,0.689 0.358,1.978 0.125,0.641 0.235,1.439 0.446,2.353 0.284,0.9 0.611,1.931 0.979,3.083 0.819,2.261 2.015,4.935 3.752,7.758 0.208,0.358 0.419,0.72 0.633,1.089 0.247,0.35 0.498,0.703 0.751,1.061 0.505,0.718 1.027,1.453 1.559,2.208 1.093,1.49 2.392,2.936 3.668,4.491 2.755,2.949 5.822,6.045 9.378,8.955 3.472,3.001 7.408,5.808 11.498,8.644 4.165,2.734 8.514,5.472 13.086,7.981 4.531,2.578 9.27,4.929 14.015,7.234 4.79,2.223 9.598,4.386 14.411,6.305 4.79,1.976 9.579,3.71 14.211,5.347 4.651,1.581 9.167,3.038 13.476,4.26 3.877,1.13 7.566,2.077 11.024,2.883 -13.114,-9.033 -25.522,-23.408 -38.487,-38.47 m -102.007,29.064 c -16.983,-3.474 -29.338,15.687 -34.059,36.217 -8.096,35.207 1.279,94.25 60.284,112.61 37.679,11.73 55.922,-20.415 77.033,-57.634 9.557,-16.848 19.309,-33.975 31.321,-47.216 -3.147,1.373 -6.452,2.834 -9.953,4.214 -4.805,1.9 -9.828,4.007 -15.13,5.889 -2.64,0.971 -5.321,1.956 -8.037,2.955 -2.74,0.923 -5.512,1.857 -8.308,2.801 -1.395,0.47 -2.795,0.942 -4.203,1.416 -1.416,0.434 -2.84,0.87 -4.265,1.307 -2.848,0.87 -5.709,1.743 -8.566,2.616 -5.782,1.529 -11.497,3.263 -17.239,4.538 -2.862,0.664 -5.679,1.399 -8.497,1.981 -2.819,0.57 -5.605,1.13 -8.345,1.682 -2.726,0.602 -5.461,0.937 -8.108,1.394 -2.654,0.407 -5.235,0.901 -7.785,1.14 -2.54,0.291 -5.012,0.574 -7.401,0.848 -2.391,0.243 -4.722,0.32 -6.94,0.477 -4.44,0.395 -8.545,0.196 -12.155,0.238 -3.615,-0.097 -6.758,-0.479 -9.34,-0.642 -2.569,-0.375 -4.571,-0.786 -5.939,-1.011 -1.366,-0.243 -2.094,-0.373 -2.094,-0.373 0,0 0.736,0.074 2.116,0.216 1.379,0.125 3.396,0.387 5.962,0.57 2.582,-0.028 5.708,0.12 9.288,-0.049 3.579,-0.309 7.613,-0.407 11.981,-1.123 2.186,-0.319 4.466,-0.561 6.808,-0.976 2.339,-0.443 4.757,-0.905 7.24,-1.376 2.49,-0.418 5.013,-1.098 7.6,-1.692 2.581,-0.643 5.235,-1.166 7.89,-1.961 2.663,-0.744 5.367,-1.499 8.104,-2.262 2.734,-0.781 5.468,-1.714 8.239,-2.572 5.553,-1.667 11.082,-3.798 16.653,-5.715 2.757,-1.069 5.509,-2.135 8.256,-3.197 1.369,-0.533 2.736,-1.063 4.101,-1.593 1.35,-0.568 2.697,-1.133 4.039,-1.699 2.68,-1.126 5.338,-2.245 7.965,-3.351 2.602,-1.174 5.168,-2.337 7.695,-3.48 5.073,-2.227 9.86,-4.661 14.434,-6.864 3.944,-1.893 7.606,-3.875 11.071,-5.677 -30.525,6.247 -60.114,-4.468 -85.893,-15.375 -0.532,-0.219 -1.063,-0.435 -1.597,-0.679 -2.432,-1.035 -4.833,-2.068 -7.197,-3.086 -13.443,-5.8 -26.14,-11.277 -37.029,-13.506 m 194.892,52.509 c 4.884,0 9.595,0.36 14.127,0.975 6.288,-1.988 11.99,-5.297 15.77,-10.092 -15.769,2.33 -38.116,4.449 -57.728,1.957 2.855,3.648 7.274,6.486 12.721,8.278 4.829,-0.706 9.87,-1.118 15.11,-1.118 m -56.649,37.541 c 0,7.461 7.034,13.531 15.68,13.531 8.645,0 15.679,-6.07 15.679,-13.531 0,-7.462 -7.034,-13.533 -15.679,-13.533 -8.646,0 -15.68,6.071 -15.68,13.533 m 80.935,20.313 c -5.809,-5.033 -9.482,-12.263 -9.482,-20.313 0,-8.049 3.673,-15.28 9.482,-20.314 -6.996,-2.029 -15.207,-3.259 -24.286,-3.259 -8.202,0 -15.692,1.004 -22.221,2.693 6.191,5.049 10.135,12.528 10.135,20.88 0,8.351 -3.944,15.831 -10.135,20.879 6.529,1.688 14.019,2.692 22.221,2.692 9.079,0 17.29,-1.229 24.286,-3.258 m 19.401,-6.782 c 8.645,0 15.679,-6.07 15.679,-13.531 0,-7.462 -7.034,-13.533 -15.679,-13.533 -8.647,0 -15.681,6.071 -15.681,13.533 0,7.461 7.034,13.531 15.681,13.531 m -5.587,-82.752 c 1.194,-4.691 2.307,-9.541 3.319,-14.557 -20.405,3.377 -55.518,6.902 -80.863,1.243 1.066,5.201 2.227,10.226 3.483,15.044 20.422,5.646 52.992,2.185 74.061,-1.73 m -83.447,-53.334 c 0.567,5.825 1.235,11.547 2.012,17.135 20.038,8.055 63.247,4.777 88.451,-0.272 0.771,-5.58 1.429,-11.3 1.987,-17.124 -30.378,8.621 -61.919,8.711 -92.45,0.261 m -2.189,-41.951 c 0.046,5.36 0.181,10.694 0.397,15.977 31.568,10.498 64.63,10.389 95.988,-0.314 0.187,-4.751 0.31,-9.549 0.363,-14.391 -33.067,9.573 -67.786,9.098 -96.748,-1.272 m 87.264,-67.571 c -2.04,-6.218 -4.317,-12.035 -6.741,-17.542 -22.054,4.232 -42.368,4.227 -61.842,-0.016 -2.782,5.354 -5.419,10.985 -7.786,17.079 20.604,10.478 52.956,8.728 76.369,0.479 m -83.364,22.972 c -1.021,4.791 -1.869,9.869 -2.514,15.274 26.465,11.902 62.024,12.58 94.264,1.824 -0.584,-5.771 -1.381,-11.245 -2.354,-16.458 -26.672,8.999 -63.063,11.121 -89.396,-0.64 m 287.071,225.686 c -8.319,19.055 -25.944,44.167 -62.677,55.596 -47.49,14.78 -71.177,-26.995 -92.082,-63.845 -12.561,-22.141 -25.457,-44.853 -42.941,-56.435 -2.369,6.78 -6.577,12.235 -11.848,16.459 3.19,1.231 6.176,2.631 8.92,4.185 0.296,-0.006 0.584,-0.042 0.88,-0.042 15.926,0 28.882,12.336 28.882,27.501 0,15.164 -12.956,27.501 -28.882,27.501 -0.296,0 -0.584,-0.034 -0.88,-0.043 -4.613,2.612 -9.893,4.803 -15.707,6.461 0.023,0.389 0.047,0.807 0.072,1.279 0.128,1.024 0.195,2.174 0.45,3.548 0.832,5.419 2.894,13.515 6.416,22.907 3.489,9.402 8.394,20.162 14.854,30.86 3.233,5.343 6.861,10.665 10.948,15.674 4.086,5.001 8.64,9.7 13.705,13.566 2.517,1.971 5.212,3.588 7.962,5.047 1.408,0.606 2.804,1.297 4.242,1.787 1.451,0.425 2.882,1.004 4.365,1.203 l 2.209,0.426 2.22,0.147 c 1.486,0.195 2.952,-0.048 4.425,-0.095 l 0.552,-0.033 c 0.021,0.015 0.342,-0.051 0.501,-0.073 l 1.171,-0.196 c 0.768,-0.138 1.582,-0.242 2.305,-0.409 1.409,-0.37 2.831,-0.635 4.209,-1.166 5.567,-1.742 10.405,-5.302 12.497,-10.265 2.148,-4.963 1.234,-10.713 -0.911,-15.105 -2.124,-4.488 -5.361,-7.885 -8.613,-10.17 -3.255,-2.336 -6.616,-3.464 -9.407,-3.986 -2.81,-0.557 -5.084,-0.341 -6.613,-0.213 -1.52,0.258 -2.334,0.397 -2.334,0.397 0,0 0.805,-0.191 2.314,-0.554 1.523,-0.227 3.806,-0.6 6.714,-0.226 2.879,0.347 6.419,1.274 9.969,3.485 3.538,2.171 7.176,5.499 9.784,10.226 1.297,2.348 2.335,5.05 2.784,8.032 0.446,2.97 0.257,6.246 -0.851,9.332 -1.085,3.096 -3.068,5.899 -5.528,8.098 -2.449,2.243 -5.359,3.886 -8.399,5.111 -1.493,0.687 -3.123,1.122 -4.731,1.642 -0.798,0.233 -1.543,0.375 -2.321,0.569 l -1.158,0.272 c -0.234,0.049 -0.298,0.084 -0.669,0.145 l -0.634,0.083 c -1.691,0.188 -3.398,0.554 -5.132,0.458 l -2.606,-0.007 -2.591,-0.315 c -1.755,-0.137 -3.427,-0.662 -5.142,-1.058 -1.696,-0.458 -3.327,-1.125 -4.985,-1.727 -3.211,-1.43 -6.36,-3.07 -9.268,-5.057 -5.868,-3.912 -11.095,-8.685 -15.795,-13.752 -4.697,-5.078 -8.878,-10.47 -12.63,-15.891 -7.502,-10.859 -13.321,-21.811 -17.641,-31.592 -2.166,-4.89 -3.975,-9.484 -5.383,-13.692 -1.412,-4.205 -2.503,-7.969 -3.194,-11.253 -0.39,-1.6 -0.605,-3.16 -0.836,-4.473 -0.017,-0.113 -0.029,-0.226 -0.044,-0.341 -4.596,0.631 -9.395,0.976 -14.352,0.976 -4.309,0 -8.5,-0.253 -12.541,-0.733 -0.006,0.034 -0.009,0.066 -0.013,0.098 -0.23,1.313 -0.445,2.873 -0.834,4.473 -0.689,3.284 -1.783,7.048 -3.196,11.253 -1.408,4.208 -3.216,8.802 -5.383,13.692 -4.319,9.781 -10.138,20.733 -17.64,31.592 -3.754,5.421 -7.934,10.813 -12.632,15.891 -4.7,5.067 -9.926,9.84 -15.794,13.752 -2.909,1.987 -6.055,3.627 -9.267,5.057 -1.659,0.602 -3.29,1.269 -4.986,1.727 -1.715,0.396 -3.385,0.921 -5.142,1.058 l -2.592,0.315 -2.605,0.007 c -1.733,0.096 -3.44,-0.27 -5.134,-0.458 l -0.633,-0.083 c -0.369,-0.061 -0.434,-0.096 -0.67,-0.145 l -1.155,-0.272 c -0.779,-0.194 -1.524,-0.336 -2.321,-0.569 -1.61,-0.52 -3.238,-0.955 -4.73,-1.642 -3.042,-1.225 -5.95,-2.868 -8.401,-5.111 -2.46,-2.199 -4.446,-5.002 -5.527,-8.098 -1.108,-3.086 -1.298,-6.362 -0.846,-9.332 0.444,-2.982 1.481,-5.684 2.78,-8.032 2.606,-4.727 6.242,-8.055 9.784,-10.226 3.547,-2.211 7.088,-3.138 9.968,-3.485 2.908,-0.374 5.19,-10e-4 6.712,0.226 1.508,0.363 2.315,0.554 2.315,0.554 0,0 -0.813,-0.139 -2.335,-0.397 -1.527,-0.128 -3.802,-0.344 -6.611,0.213 -2.791,0.522 -6.153,1.65 -9.406,3.986 -3.254,2.285 -6.491,5.682 -8.615,10.17 -2.144,4.392 -3.06,10.142 -0.911,15.105 2.091,4.963 6.931,8.523 12.498,10.265 1.376,0.531 2.801,0.796 4.208,1.166 0.724,0.167 1.54,0.271 2.307,0.409 l 1.17,0.196 c 0.158,0.022 0.48,0.088 0.502,0.073 l 0.551,0.033 c 1.472,0.047 2.937,0.29 4.424,0.095 l 2.221,-0.147 2.208,-0.426 c 1.482,-0.199 2.914,-0.778 4.365,-1.203 1.439,-0.49 2.835,-1.181 4.241,-1.787 2.75,-1.459 5.447,-3.076 7.963,-5.047 5.066,-3.866 9.62,-8.565 13.705,-13.566 4.087,-5.009 7.716,-10.331 10.949,-15.674 6.46,-10.698 11.364,-21.458 14.855,-30.86 3.521,-9.392 5.582,-17.488 6.414,-22.907 0.255,-1.374 0.323,-2.524 0.45,-3.548 0.015,-0.286 0.031,-0.535 0.047,-0.791 -6.569,-1.72 -12.508,-4.096 -17.613,-7.001 -15.028,-0.951 -26.957,-12.861 -26.957,-27.406 0,-14.545 11.929,-26.456 26.957,-27.408 2.722,-1.548 5.686,-2.942 8.85,-4.172 -3.859,-3.504 -6.813,-7.723 -8.625,-12.563 -14.854,12.337 -26.382,32.632 -37.639,52.475 -20.908,36.85 -44.598,78.618 -92.084,63.845 C 86.789,501.01 69.166,475.898 60.847,456.843 50.998,434.277 48.55,407.412 54.138,383.127 c 6.71,-29.198 23.483,-47.298 42.892,-47.298 2.139,0 4.311,0.22 6.502,0.669 3.546,0.724 7.195,1.752 10.922,2.955 -10.026,-13.916 -17.141,-30.46 -18.089,-45.013 -0.895,-13.718 3.91,-24.266 13.53,-29.707 9.21,-5.207 17.954,-7.462 26.298,-7.462 29.703,0.004 54.31,28.585 76.599,54.475 9.345,10.853 18.377,21.326 27.263,29.278 -3.215,-21.555 -4.914,-45.096 -4.914,-69.548 0,-54.619 17.314,-83.529 32.59,-109.034 11.102,-18.538 20.693,-34.546 22.446,-57.973 l 4.698,-62.775 8.418,62.336 c 2.103,15.573 10.157,29.684 19.481,46.02 15.862,27.793 35.604,62.382 35.604,121.426 0,26.712 -2.058,52.489 -5.918,75.758 11.363,-8.13 22.894,-21.493 34.944,-35.488 22.289,-25.892 46.897,-54.477 76.597,-54.475 8.344,0 17.092,2.257 26.302,7.462 9.649,5.456 14.47,16.046 13.571,29.813 -0.947,14.509 -8.024,30.994 -17.999,44.863 3.68,-1.184 7.286,-2.195 10.788,-2.911 2.193,-0.45 4.364,-0.669 6.502,-0.669 19.409,0.002 36.183,18.104 42.898,47.298 5.582,24.285 3.135,51.15 -6.712,73.716"
           style="fill:#231f20;fill-opacity:1;fill-rule:nonzero;stroke:none"
           id="path7252"
           inkscape:connector-curvature="0" /></g></g></g></svg>